<svg height="512pt" viewBox="0 0 512 512" width="512pt" xmlns="http://www.w3.org/2000/svg"><path d="m416 512h-320c-53.023438 0-96-42.976562-96-96v-320c0-53.023438 42.976562-96 96-96h320c53.023438 0 96 42.976562 96 96v320c0 53.023438-42.976562 96-96 96zm0 0" fill="#f5e6fe"/><path d="m202.65625 202.671875c0 11.777344-9.550781 21.328125-21.328125 21.328125s-21.328125-9.550781-21.328125-21.328125 9.550781-21.328125 21.328125-21.328125 21.328125 9.550781 21.328125 21.328125zm0 0" fill="#be63f9"/><path d="m229.328125 314.671875c0-41.582031 29.902344-76.257813 69.328125-83.777344v-70.894531c0-17.648438-14.351562-32-32-32h-106.65625c-17.648438 0-32 14.351562-32 32v149.328125c0 17.648437 14.351562 32 32 32h73.664062c-2.785156-8.398437-4.335937-17.34375-4.335937-26.65625zm-50.769531-56.75c-7.039063-7.042969-19.421875-7.042969-26.460938 0l-2.769531 2.765625v-100.6875c0-5.886719 4.785156-10.671875 10.671875-10.671875h106.671875c5.886719 0 10.671875 4.785156 10.671875 10.671875v68.6875l-8.113281-8.113281c-7.292969-7.292969-19.167969-7.292969-26.460938 0l-50.769531 50.785156zm0 0" fill="#be63f9"/><path d="m314.671875 245.328125c-38.222656 0-69.328125 31.105469-69.328125 69.328125s31.089844 69.34375 69.328125 69.34375 69.328125-31.105469 69.328125-69.328125-31.105469-69.34375-69.328125-69.34375zm29.328125 80h-18.671875v18.671875c0 5.886719-4.769531 10.671875-10.671875 10.671875s-10.65625-4.769531-10.65625-10.671875v-18.671875h-18.671875c-5.886719 0-10.671875-4.769531-10.671875-10.671875s4.785156-10.65625 10.671875-10.65625h18.671875v-18.671875c0-5.886719 4.769531-10.671875 10.671875-10.671875s10.671875 4.769531 10.671875 10.671875v18.671875h18.65625c5.886719 0 10.671875 4.769531 10.671875 10.671875s-4.769531 10.65625-10.671875 10.65625zm0 0" fill="#d9a4fc"/></svg>