<?xml version="1.0" encoding="utf-8"?>
<svg height="439pt" viewBox="0 -1 439.58 439" width="439pt" xmlns="http://www.w3.org/2000/svg" xmlns:bx="https://boxy-svg.com">
  <path d="m310.671875 86.839844v8.191406h-185.773437c-22.210938-.003906-40.21875 18.003906-40.21875 40.21875v168.828125c0 22.21875-18.011719 40.226563-40.230469 40.222656h-4.230469c-22.214844.003907-40.22265625-18.003906-40.21875-40.222656v-263.566406c0-22.214844 18.007812-40.222657 40.21875-40.222657h90.242188c11.292968.003907 22.070312 4.753907 29.6875 13.089844l27.390624 29.960938c1.902344 2.085937 4.597657 3.273437 7.421876 3.269531h75.488281c22.214843.003906 40.222656 18.015625 40.222656 40.230469zm0 0" fill="#cc7350"/>
  <path d="m259.671875 344.300781c2.097656-48.132812 41.730469-86.070312 89.90625-86.070312 3.464844 0 6.921875.195312 10.363281.589843 48.035156 5.566407 83.085938 48.097657 79.371094 96.3125-3.710938 48.214844-44.863281 84.878907-93.1875 83.023438s-86.539062-41.566406-86.546875-89.925781c0-1.320313.03125-2.628907.09375-3.929688zm0 0" fill="#6fe3ff"/>
  <path d="m360 135.25v123.050781l-.058594.519531c-3.441406-.394531-6.898437-.589843-10.363281-.589843-48.175781 0-87.808594 37.9375-89.90625 86.070312h-215.222656c22.21875.003907 40.230469-18.003906 40.230469-40.222656v-168.828125c0-22.214844 18.007812-40.222656 40.21875-40.21875h194.871093c22.21875-.007812 40.230469 18 40.230469 40.21875zm0 0" fill="#f8ec7d"/>
  <path d="m399.578125 342.230469h-44v-44c0-3.3125-2.683594-6-6-6-3.3125 0-6 2.6875-6 6v44h-44c-3.3125 0-6 2.6875-6 6s2.6875 6 6 6h44v44c0 3.3125 2.6875 6 6 6 3.316406 0 6-2.6875 6-6v-44h44c3.316406 0 6-2.6875 6-6s-2.683594-6-6-6zm0 0" fill="#2561a1"/>
  <path d="M 200.195 115.821 L 269.64 236.104 L 130.75 236.104 L 200.195 115.821 Z" style="fill: rgb(204, 115, 80); stroke-linejoin: round; stroke-linecap: round; stroke-width: 0px;" transform="matrix(0.859271, -0.511521, 0.511521, 0.859271, -58.940529, 146.062698)" bx:shape="triangle 130.75 115.821 138.89 120.283 0.5 0 1@00c95cf5"/>
</svg>