<svg id="Layer_1" enable-background="new 0 0 504.5 504.5" height="512" viewBox="0 0 504.5 504.5" width="512" xmlns="http://www.w3.org/2000/svg"><g><g><path d="m500.75 504.5v-442.582c0-11.046-8.954-20-20-20h-457c-11.046 0-20 8.954-20 20v442.582z" fill="#fff9e9"/><path d="m480.75 41.918h-40c11.046 0 20 8.954 20 20v442.582h40v-442.582c0-11.045-8.954-20-20-20z" fill="#fff4d6"/><g><path d="m448.595 42.093v-9.883c0-9.49-7.72-17.21-17.21-17.21h-45.901c-9.49 0-17.21 7.72-17.21 17.21v202.755c0 16.678 13.568 30.246 30.246 30.246s30.247-13.568 30.247-30.246v-139.24c0-5.985-4.869-10.854-10.854-10.854s-10.854 4.869-10.854 10.854v86.941c0 4.142-3.358 7.5-7.5 7.5s-7.5-3.358-7.5-7.5v-86.941c0-14.256 11.598-25.854 25.854-25.854s25.854 11.598 25.854 25.854v139.24c0 24.949-20.297 45.246-45.246 45.246s-45.247-20.297-45.247-45.246v-202.755c0-17.761 14.45-32.21 32.21-32.21h45.901c17.761 0 32.21 14.449 32.21 32.21v9.883z" fill="#ffabe7"/></g></g><g fill="#fae19e"><path d="m79.547 222.639h201.817c9.697 0 9.697-15 0-15h-201.817c-9.697 0-9.697 15 0 15z"/><path d="m79.547 297.911h201.817c9.697 0 9.697-15 0-15h-201.817c-9.697 0-9.697 15 0 15z"/><path d="m79.547 373.183h345.405c9.697 0 9.697-15 0-15h-345.405c-9.697 0-9.697 15 0 15z"/><path d="m424.953 433.455h-345.406c-9.697 0-9.697 15 0 15h345.405c9.698 0 9.698-15 .001-15z"/></g></g></svg>