<?xml version="1.0" encoding="UTF-8"?>
<svg width="138px" height="141px" viewBox="0 0 138 141" version="1.1" xmlns="http://www.w3.org/2000/svg" xmlns:xlink="http://www.w3.org/1999/xlink">
    <!-- Generator: Sketch 56.2 (81672) - https://sketch.com -->
    <title>Logo_commerce</title>
    <desc>Created with Sketch.</desc>
    <defs>
        <filter x="-9.2%" y="-9.0%" width="118.5%" height="118.0%" filterUnits="objectBoundingBox" id="filter-1">
            <feOffset dx="0" dy="2" in="SourceAlpha" result="shadowOffsetOuter1"></feOffset>
            <feGaussianBlur stdDeviation="2" in="shadowOffsetOuter1" result="shadowBlurOuter1"></feGaussianBlur>
            <feColorMatrix values="0 0 0 0 0   0 0 0 0 0   0 0 0 0 0  0 0 0 0.5 0" type="matrix" in="shadowBlurOuter1" result="shadowMatrixOuter1"></feColorMatrix>
            <feMerge>
                <feMergeNode in="shadowMatrixOuter1"></feMergeNode>
                <feMergeNode in="SourceGraphic"></feMergeNode>
            </feMerge>
        </filter>
    </defs>
    <g id="Process-création-compte" stroke="none" stroke-width="1" fill="none" fill-rule="evenodd">
        <g id="Type-de-compte" transform="translate(-118.000000, -419.000000)">
            <g id="Bouton-Commerce" transform="translate(0.000000, 366.000000)">
                <g id="Bouton_commerce" transform="translate(77.000000, 55.000000)">
                    <g id="Commerce" filter="url(#filter-1)" transform="translate(45.000000, 0.000000)">
                        <g id="Logo_commerce">
                            <circle id="Oval" fill="#DD5252" cx="65" cy="67.15625" r="65"></circle>
                            <g id="Commerce2" transform="translate(10.000000, 0.000000)" fill-rule="nonzero">
                                <g id="Layer_1">
                                    <g id="Group">
                                        <path d="M101.830189,24.7169811 C101.849057,42.8962264 101.820755,61.0849057 101.933962,79.2641509 C101.95283,81.7735849 101.207547,82.490566 98.7169811,82.4716981 C78.3018868,82.3679245 57.8867925,82.3962264 37.4716981,82.3773585 C37.5,65.7641509 37.5,49.1415094 37.5943396,32.5283019 C37.6037736,30.6509434 37.1037736,30.0754717 35.1981132,30.1037736 C28.2830189,30.2169811 21.3679245,30.2169811 14.4528302,30.1037736 C12.5471698,30.0754717 12.0377358,30.6509434 12.0566038,32.5283019 C12.1509434,49.1415094 12.1509434,65.7641509 12.1792453,82.3773585 C5.39622642,82.509434 5.38679245,82.509434 5.39622642,75.8584906 C5.41509434,58.8113208 5.43396226,41.754717 5.44339623,24.7075472 C37.5660377,24.7169811 69.6981132,24.7169811 101.830189,24.7169811 Z M96.4339623,50.7075472 C96.4245283,49.8962264 96.4245283,49.0849057 96.4150943,48.2830189 C96.4528302,43.0660377 96.3773585,37.8490566 96.5660377,32.6415094 C96.6415094,30.4433962 95.754717,30.0283019 93.8490566,30.1320755 C91.1886792,30.2641509 88.5188679,30.1792453 85.8584906,30.1886792 L75.0188679,30.1886792 L64.4150943,30.1886792 L53.5754717,30.1886792 C50.9150943,30.1792453 48.245283,30.2735849 45.5849057,30.1320755 C43.6792453,30.0377358 42.7830189,30.4433962 42.8584906,32.6415094 C43.0471698,37.8490566 42.9811321,43.0660377 43.009434,48.2830189 C43,49.0943396 43,49.8962264 42.990566,50.7075472 C42.6603774,52.5377358 42.9622642,54.2169811 44.254717,55.6320755 C44.254717,60.4150943 44.3490566,65.2075472 44.2075472,69.990566 C44.1415094,72.2358491 44.754717,73.1132075 47.1792453,73.0943396 C62.2075472,73 77.2264151,73 92.254717,73.0943396 C94.6792453,73.1132075 95.2830189,72.2358491 95.2169811,69.990566 C95.0849057,65.2075472 95.1698113,60.4150943 95.1698113,55.6320755 C96.4622642,54.2075472 96.7641509,52.5377358 96.4339623,50.7075472 Z" id="Shape" fill="#E4E4E4"></path>
                                        <path d="M101.915094,13.3584906 C104.556604,13.3962264 103.886792,14.0660377 103.849057,19.5943396 C103.839623,21.4433962 103.886792,21.4433962 101.877358,21.4433962 L5.37735849,21.4433962 C4.74528302,21.3679245 3.69811321,21.6226415 3.64150943,20.8584906 C3.36792453,17.4150943 3.36792453,16.745283 3.62264151,14 C3.68867925,13.2358491 4.72641509,13.4716981 5.3490566,13.3584906 C37.5377358,13.3584906 69.7264151,13.3584906 101.915094,13.3584906 Z" id="Shape" fill="#CACACA"></path>
                                        <path d="M12.0849057,87.7830189 C12.0566038,71.1698113 12.1415094,49.1509434 12.0471698,32.5377358 C12.0377358,30.6603774 12.5377358,30.0849057 14.4433962,30.1132075 C21.3584906,30.2264151 28.2735849,30.2264151 35.1886792,30.1132075 C37.0943396,30.0849057 37.6037736,30.6603774 37.5849057,32.5377358 C37.490566,49.1509434 37.5754717,71.1698113 37.5471698,87.7830189 L12.0849057,87.7830189 Z M33.5283019,59.5660377 C33.5283019,56 33.4339623,52.4245283 33.5660377,48.8584906 C33.6415094,46.9528302 33.3301887,46.0754717 31.0943396,46.1792453 C26.8679245,46.3867925 22.6226415,46.3490566 18.3867925,46.1886792 C16.3584906,46.1132075 16.0471698,46.9056604 16.0660377,48.6792453 C16.1509434,55.8113208 16.1792453,62.9528302 16.0566038,70.0849057 C16.0188679,72.0943396 16.754717,72.4528302 18.5377358,72.4056604 C22.7735849,72.2924528 27.0188679,72.254717 31.245283,72.4150943 C33.2735849,72.490566 33.6226415,71.7075472 33.5566038,69.9245283 C33.4339623,66.4811321 33.5283019,63.0188679 33.5283019,59.5660377 Z M25.0377358,34.1792453 L21.6981132,34.1792453 C15.7169811,34.1792453 15.7735849,34.1792453 16.0660377,40.3207547 C16.1320755,41.6981132 16.3867925,42.2830189 17.9150943,42.254717 C22.4811321,42.1603774 27.0471698,42.1792453 31.6132075,42.245283 C32.990566,42.2641509 33.490566,41.9433962 33.5754717,40.4245283 C33.9245283,34.1698113 34,34.1792453 27.7075472,34.1792453 L25.0377358,34.1792453 Z" id="Shape" fill="#062C4B"></path>
                                        <path d="M101.915094,13.3584906 L5.33962264,13.3584906 C5.46226415,6.02830189 5.46226415,6.02830189 12.745283,6.02830189 L13.4150943,6.02830189 L93.8301887,6.02830189 L94.5,6.02830189 C101.792453,6.02830189 101.792453,6.02830189 101.915094,13.3584906 Z" id="Shape" fill="#E4E4E4"></path>
                                        <path d="M37.6415094,79.6981132 C60.6320755,79.6792453 83.6132075,79.6698113 106.603774,79.6509434 C109.924528,79.754717 109.924528,79.754717 109.90566,85.2641509 C109.896226,87.7924528 109.924528,87.7924528 106.59434,87.8018868 C83.5566038,87.7641509 60.5849057,87.8207547 37.5471698,87.7924528 C37.5943396,85.1132075 37.5849057,82.3679245 37.6415094,79.6981132 Z" id="Shape" fill="#979797"></path>
                                        <path d="M93.8396226,6.02830189 L13.4245283,6.02830189 C13.4245283,0 13.4245283,0 19.3679245,0 L87.9056604,0 C93.8396226,0 93.8396226,0 93.8396226,6.02830189 Z" id="Shape" fill="#CACACA"></path>
                                        <path d="M5.37735849,21.4433962 L101.877358,21.4433962 C101.858491,22.5377358 101.839623,23.6226415 101.820755,24.7169811 L5.4245283,24.7169811 C5.41509434,23.6226415 5.39622642,22.5377358 5.37735849,21.4433962 Z" id="Shape" fill="#979797"></path>
                                        <path d="M11.990566,79.6886792 C12.0471698,82.3584906 12.0849057,79.745283 12.0849057,87.7830189 C6.05660377,87.7830189 5.38679245,87.7830189 2.56603774,87.8207547 C0.0188679245,87.7830189 0.0188679245,87.7830189 0.00943396226,85.1698113 C0.0188679245,83.0943396 0.0188679245,85.1037736 0,83.1886792 C0.0188679245,79.7358491 0.0188679245,79.7358491 3.33962264,79.6415094 C6.21698113,79.6603774 9.10377358,79.6792453 11.990566,79.6886792 Z" id="Shape" fill="#979797"></path>
                                        <path d="M95.1698113,55.6320755 C95.1698113,60.4150943 95.0754717,65.2075472 95.2169811,69.990566 C95.2830189,72.2358491 94.6698113,73.1132075 92.254717,73.0943396 C77.2264151,73 62.2075472,73 47.1792453,73.0943396 C44.754717,73.1132075 44.1509434,72.2358491 44.2075472,69.990566 C44.3396226,65.2075472 44.254717,60.4150943 44.254717,55.6320755 C45.3018868,56.1509434 46.1226415,57.2075472 47.4811321,56.9528302 C47.5188679,60.5188679 47.6320755,64.0849057 47.5660377,67.6415094 C47.5377358,69.245283 48.0566038,69.7264151 49.6509434,69.7264151 C63.0283019,69.6698113 76.3962264,69.6698113 89.7735849,69.7264151 C91.3679245,69.7358491 91.8962264,69.254717 91.8584906,67.6509434 C91.7924528,64.0849057 91.9056604,60.5283019 91.9433962,56.9622642 C93.0188679,56.509434 94.0943396,56.0754717 95.1698113,55.6320755 Z" id="Shape" fill="#FEFEFE"></path>
                                        <path d="M75.0188679,30.1792453 L85.8584906,30.1792453 C85.8679245,36.2075472 85.8773585,42.2358491 85.8773585,48.2735849 L85.7169811,48.2358491 C82.2169811,48.2358491 78.7169811,48.245283 75.2169811,48.245283 C75.1415094,42.2264151 75.0754717,36.1981132 75.0188679,30.1792453 Z" id="Shape" fill="#FEFEFE"></path>
                                        <path d="M43.009434,48.2830189 C42.9716981,43.0660377 43.0471698,37.8490566 42.8584906,32.6415094 C42.7830189,30.4433962 43.6792453,30.0377358 45.5849057,30.1320755 C48.245283,30.2641509 50.9150943,30.1792453 53.5754717,30.1886792 C53.5660377,36.2169811 53.5566038,42.245283 53.5566038,48.2830189 C50.0377358,48.2735849 46.5188679,48.2735849 43.009434,48.2830189 Z" id="Shape" fill="#F15B4A"></path>
                                        <path d="M75.0188679,30.1792453 C75.0849057,36.1981132 75.1509434,42.2264151 75.2169811,48.245283 L74.9528302,48.254717 C71.4528302,48.254717 67.9433962,48.2641509 64.4433962,48.2641509 C64.4339623,42.2358491 64.4245283,36.2075472 64.4245283,30.1792453 C67.9433962,30.1792453 71.4811321,30.1792453 75.0188679,30.1792453 Z" id="Shape" fill="#F15B4A"></path>
                                        <path d="M64.4056604,30.1792453 C64.4150943,36.2075472 64.4245283,42.2358491 64.4245283,48.2735849 L64.2641509,48.2358491 L53.6981132,48.2358491 L53.5377358,48.2735849 C53.5471698,42.245283 53.5566038,36.2169811 53.5566038,30.1792453 C57.1792453,30.1792453 60.7924528,30.1792453 64.4056604,30.1792453 Z" id="Shape" fill="#FEFEFE"></path>
                                        <path d="M85.8773585,48.2641509 C85.8679245,42.2358491 85.8584906,36.2075472 85.8584906,30.1698113 C88.5188679,30.1603774 91.1886792,30.254717 93.8490566,30.1132075 C95.754717,30.0188679 96.6509434,30.4245283 96.5660377,32.6226415 C96.3773585,37.8301887 96.4528302,43.0471698 96.4150943,48.2641509 C92.9056604,48.2735849 89.3867925,48.2735849 85.8773585,48.2641509 Z" id="Shape" fill="#F15B4A"></path>
                                        <path d="M43.009434,48.2830189 C46.5188679,48.2830189 50.0377358,48.2735849 53.5471698,48.2735849 L53.7075472,48.2358491 C53.6603774,49.0283019 53.6132075,49.8113208 53.5660377,50.6037736 C52.0943396,52.6415094 50.245283,53.9622642 47.5849057,53.7358491 C45.4716981,53.6037736 44.254717,52.1132075 42.9811321,50.7169811 C43,49.8962264 43,49.0849057 43.009434,48.2830189 Z" id="Shape" fill="#D22526"></path>
                                        <path d="M85.8773585,48.2641509 C89.3867925,48.2641509 92.9056604,48.2735849 96.4150943,48.2735849 C96.4245283,49.0849057 96.4245283,49.8962264 96.4339623,50.6981132 C95.1603774,52.0943396 93.9433962,53.5849057 91.8301887,53.7169811 C89.1698113,53.9528302 87.3207547,52.6226415 85.8490566,50.5849057 C85.8018868,49.8018868 85.754717,49.009434 85.7075472,48.2264151 L85.8773585,48.2641509 Z" id="Shape" fill="#D22526"></path>
                                        <path d="M42.990566,50.7075472 C44.2641509,52.1037736 45.4811321,53.6037736 47.5943396,53.7264151 C47.6415094,54.8113208 47.6886792,55.8962264 47.7358491,56.990566 L47.4811321,56.9528302 C46.1226415,57.1981132 45.3018868,56.1509434 44.254717,55.6320755 C42.9528302,54.2075472 42.6603774,52.5377358 42.990566,50.7075472 Z" id="Shape" fill="#CBD8E0"></path>
                                        <path d="M91.8301887,53.7264151 C93.9433962,53.6037736 95.1509434,52.1037736 96.4339623,50.7075472 C96.7641509,52.5377358 96.4716981,54.2075472 95.1792453,55.6320755 C94.509434,56.2924528 93.8396226,56.9622642 91.9528302,56.9528302 L91.6981132,56.990566 C91.7358491,55.8962264 91.7830189,54.8113208 91.8301887,53.7264151 Z" id="Shape" fill="#CBD8E0"></path>
                                        <path d="M25.0377358,34.1792453 L27.7075472,34.1792453 C34,34.1792453 33.9245283,34.1792453 33.5754717,40.4245283 C33.490566,41.9433962 32.990566,42.2641509 31.6132075,42.245283 C27.0471698,42.1792453 22.4811321,42.1603774 17.9150943,42.254717 C16.3867925,42.2830189 16.1320755,41.6981132 16.0660377,40.3207547 C15.7641509,34.1792453 15.7169811,34.1792453 21.6981132,34.1792453 L25.0377358,34.1792453 Z M24.490566,40.2075472 C26.1509434,40.2075472 27.8113208,40.1226415 29.4622642,40.2358491 C31.0377358,40.3396226 31.5566038,39.7924528 31.5566038,38.1886792 C31.5660377,36.5471698 30.9716981,36.1132075 29.4339623,36.1603774 C26.4528302,36.254717 23.4622642,36.2358491 20.4716981,36.1698113 C18.9811321,36.1320755 18.0283019,36.2264151 18.0283019,38.2169811 C18.0283019,40.2358491 19.0377358,40.2924528 20.5,40.2264151 C21.8396226,40.1603774 23.1698113,40.2075472 24.490566,40.2075472 Z" id="Shape" fill="#FEFEFE"></path>
                                        <path d="M91.9433962,56.9528302 C91.9056604,60.5188679 91.7924528,64.0849057 91.8584906,67.6415094 C91.8867925,69.245283 91.3679245,69.7264151 89.7735849,69.7169811 C76.3962264,69.6603774 63.0283019,69.6603774 49.6509434,69.7169811 C48.0566038,69.7264151 47.5377358,69.2358491 47.5660377,67.6320755 C47.6320755,64.0660377 47.5188679,60.509434 47.4811321,56.9433962 L47.7358491,56.9811321 C50.0471698,57.1037736 51.4056604,55.4245283 53.1886792,54.4433962 C54.8396226,53.5377358 56.0943396,57.3018868 58.5566038,56.9433962 C58.7735849,56.9150943 59,56.9433962 59.2264151,56.9433962 C61.490566,56.9811321 62.6509434,54.5188679 64.1886792,54.2358491 C65.7075472,53.9528302 67.009434,56.8962264 69.3773585,56.9811321 C71.9245283,57.0660377 73.3301887,54.4245283 74.9811321,54.2830189 C76.6698113,54.1415094 78.1415094,57.1698113 80.8679245,57.009434 C83.245283,56.8679245 84.7358491,53.6603774 85.9622642,54.2641509 C87.8301887,55.1792453 89.1792453,57.1792453 91.6792453,56.9716981 L91.9433962,56.9528302 Z" id="Shape" fill="#0093ED"></path>
                                        <path d="M85.7169811,48.2358491 C85.7641509,49.0188679 85.8113208,49.8113208 85.8584906,50.5943396 C82.6226415,54.8113208 78.3207547,54.8490566 75.0188679,50.6037736 C75,49.8207547 74.9716981,49.0471698 74.9528302,48.2641509 L75.2169811,48.254717 C78.7169811,48.245283 82.2169811,48.2358491 85.7169811,48.2358491 Z" id="Shape" fill="#CBD8E0"></path>
                                        <path d="M74.9433962,48.254717 C74.9622642,49.0377358 74.990566,49.8113208 75.009434,50.5943396 C71.1792453,54.9245283 68.2169811,54.9245283 64.4056604,50.5849057 C64.3584906,49.8018868 64.3113208,49.009434 64.2641509,48.2264151 L64.4245283,48.2641509 C67.9339623,48.2641509 71.4433962,48.254717 74.9433962,48.254717 Z" id="Shape" fill="#D22526"></path>
                                        <path d="M64.2735849,48.2358491 C64.3207547,49.0188679 64.3679245,49.8113208 64.4150943,50.5943396 C61.1792453,54.8113208 56.8773585,54.8490566 53.5754717,50.6037736 C53.6226415,49.8113208 53.6698113,49.0283019 53.7169811,48.2358491 L64.2735849,48.2358491 Z" id="Shape" fill="#CBD8E0"></path>
                                        <path d="M53.5660377,50.5943396 C56.8584906,54.8490566 61.1698113,54.8018868 64.4056604,50.5849057 C68.2169811,54.9245283 71.1792453,54.9245283 75.009434,50.5943396 C78.3018868,54.8490566 82.6132075,54.8018868 85.8490566,50.5849057 C87.3207547,52.6226415 89.1698113,53.9528302 91.8301887,53.7169811 C91.7830189,54.8018868 91.7358491,55.8962264 91.6886792,56.9811321 C89.1886792,57.1886792 87.8396226,55.1886792 85.9716981,54.2735849 C84.7358491,53.6698113 83.254717,56.8773585 80.8773585,57.0188679 C78.1509434,57.1792453 76.6792453,54.1509434 74.990566,54.2924528 C73.3396226,54.4339623 71.9339623,57.0849057 69.3867925,56.990566 C67.009434,56.9056604 65.7169811,53.9622642 64.1981132,54.245283 C62.6603774,54.5283019 61.5,56.990566 59.2358491,56.9528302 C59.009434,56.9528302 58.7830189,56.9150943 58.5660377,56.9528302 C56.1037736,57.3113208 54.8490566,53.5471698 53.1981132,54.4528302 C51.4150943,55.4245283 50.0660377,57.1132075 47.745283,56.990566 C47.6981132,55.9056604 47.6509434,54.8113208 47.6037736,53.7264151 C50.254717,53.9622642 52.0943396,52.6320755 53.5660377,50.5943396 Z" id="Shape" fill="#037ED1"></path>
                                        <path d="M18.1132075,58.8773585 C18.1132075,58.5943396 18.1320755,58.1226415 18.1415094,57.8396226 C18.2735849,55.3773585 18.1981132,51.509434 18.1415094,49.5188679 C18.1226415,48.8113208 18.6792453,48.245283 19.3867925,48.2358491 C21.8018868,48.2264151 27.0283019,48.1981132 29.8679245,48.2264151 C31.509434,48.245283 31.509434,48.245283 31.5188679,50.0471698 C31.5754717,56.1886792 31.4622642,62.3301887 31.5283019,68.4716981 C31.5471698,70.6886792 31.4622642,70.3867925 25.2641509,70.2830189 C23.8679245,70.2641509 22.4622642,70.2830189 21.0660377,70.3301887 C18.1132075,70.4245283 18.0471698,70.009434 18.0849057,68.3867925 C18.1603774,65.2264151 18.1132075,62.0471698 18.1132075,58.8773585 Z" id="Shape" fill="#0093ED"></path>
                                        <path d="M24.490566,40.2075472 C23.1603774,40.2075472 21.8301887,40.1603774 20.509434,40.2169811 C19.0471698,40.2830189 18.0377358,40.2264151 18.0377358,38.2075472 C18.0377358,36.2169811 18.990566,36.1320755 20.4811321,36.1603774 C23.4622642,36.2264151 26.4528302,36.245283 29.4433962,36.1509434 C30.9811321,36.1037736 31.5660377,36.5377358 31.5660377,38.1792453 C31.5566038,39.7830189 31.0471698,40.3301887 29.4716981,40.2264151 C27.8207547,40.1226415 26.1509434,40.2075472 24.490566,40.2075472 Z" id="Shape" fill="#0093ED"></path>
                                    </g>
                                </g>
                            </g>
                        </g>
                    </g>
                </g>
            </g>
        </g>
    </g>
</svg>